<?xml version="1.0" encoding="UTF-8" standalone="no"?>
<svg
   xmlns:dc="http://purl.org/dc/elements/1.1/"
   xmlns:cc="http://creativecommons.org/ns#"
   xmlns:rdf="http://www.w3.org/1999/02/22-rdf-syntax-ns#"
   xmlns:svg="http://www.w3.org/2000/svg"
   xmlns="http://www.w3.org/2000/svg"
   version="1.1"
   id="Layer_1"
   x="0px"
   y="0px"
   width="67.409px"
   height="33.206px"
   viewBox="0 0 67.409 33.206"
   enable-background="new 0 0 67.409 33.206"
   xml:space="preserve"><metadata
   id="metadata4185"><rdf:RDF><cc:Work
       rdf:about=""><dc:format>image/svg+xml</dc:format><dc:type
         rdf:resource="http://purl.org/dc/dcmitype/StillImage" /><dc:title></dc:title></cc:Work></rdf:RDF></metadata><defs
   id="defs4183" />
<g
   id="Menu_Pressed">
	<path
   fill="#F5F5F5"
   stroke="#FFFFFF"
   stroke-miterlimit="10"
   d="M66.909,16.603c0,8.903-7.229,16.103-16.102,16.103   c-8.901,0-16.102-7.2-16.102-16.103c0-8.896,7.2-16.103,16.102-16.103C59.681,0.5,66.909,7.707,66.909,16.603z"
   id="path4130" />
	<g
   id="g4138">
		<rect
   x="43.612"
   y="11.978"
   fill="#929493"
   width="14.361"
   height="1.552"
   id="rect4132" />
		<rect
   x="43.612"
   y="15.896"
   fill="#929493"
   width="14.361"
   height="1.552"
   id="rect4134" />
		<rect
   x="43.612"
   y="19.706"
   fill="#929493"
   width="14.361"
   height="1.532"
   id="rect4136" />
	</g>
</g>
<g
   id="Switcher_PRessed">
	<path
   fill="#F5F5F5"
   stroke="#FFFFFF"
   stroke-miterlimit="10"
   d="M32.706,16.603c0,8.903-7.201,16.103-16.103,16.103   c-8.872,0-16.103-7.2-16.103-16.103C0.5,7.707,7.731,0.5,16.603,0.5C25.505,0.5,32.706,7.707,32.706,16.603z"
   id="path4141" />
	<g
   id="g4147">
		<polygon
   fill="#929493"
   points="14.087,16.502 11.056,16.502 11.056,12.718 16.528,12.718 16.528,14.039 18.328,14.039     18.328,10.979 9.437,10.979 9.437,18.369 14.087,18.369   "
   id="polygon4143" />
		<path
   fill="#929493"
   d="M14.837,14.663v7.584h8.96v-7.584H14.837z M21.998,20.447h-5.47v-3.945h5.47V20.447z"
   id="path4145" />
	</g>
</g>
<g
   id="g4150">
</g>
<g
   id="g4152">
</g>
<g
   id="g4154">
</g>
<g
   id="g4156">
</g>
<g
   id="g4158">
</g>
<g
   id="g4160">
</g>
<g
   id="g4162">
</g>
<g
   id="g4164">
</g>
<g
   id="g4166">
</g>
<g
   id="g4168">
</g>
<g
   id="g4170">
</g>
<g
   id="g4172">
</g>
<g
   id="g4174">
</g>
<g
   id="g4176">
</g>
<g
   id="g4178">
</g>
</svg>
