<?xml version="1.0" encoding="UTF-8" standalone="no"?>
<svg
   xmlns:dc="http://purl.org/dc/elements/1.1/"
   xmlns:cc="http://creativecommons.org/ns#"
   xmlns:rdf="http://www.w3.org/1999/02/22-rdf-syntax-ns#"
   xmlns:svg="http://www.w3.org/2000/svg"
   xmlns="http://www.w3.org/2000/svg"
   version="1.1"
   id="Layer_1"
   x="0px"
   y="0px"
   width="88.934px"
   height="121.795px"
   viewBox="0 0 88.934 121.795"
   enable-background="new 0 0 88.934 121.795"
   xml:space="preserve"><metadata
   id="metadata6533"><rdf:RDF><cc:Work
       rdf:about=""><dc:format>image/svg+xml</dc:format><dc:type
         rdf:resource="http://purl.org/dc/dcmitype/StillImage" /><dc:title></dc:title></cc:Work></rdf:RDF></metadata><defs
   id="defs6531" />
<g
   id="LT_Pressed">
	<path
   fill="#E5E5E5"
   d="M74.753,56.076v-0.668C74.768,55.821,74.753,56.076,74.753,56.076z"
   id="path6491" />
	<path
   fill="#E5E5E5"
   d="M49.715,5.466c0.401-0.319,0.805-0.618,1.211-0.899l2.322,109.995L0,121.795   C12.067,4.974,42.959,10.762,49.715,5.466z"
   id="path6493" />
	<path
   fill="#EBEBEB"
   d="M76.741,0.142c10.833,0.403,12.069,11.439,12.193,15.19v1.227c0,0-2.901,40.716,0,93.094   c-9.926,2.289-38.539,5.298-38.539,5.298s-0.051-20.914-0.68-50.596c-0.811-37.501,1.211-59.788,1.211-59.788   C57.343,0.091,64.492-0.307,76.741,0.142z"
   id="path6495" />
</g>
<g
   id="g6498">
</g>
<g
   id="g6500">
</g>
<g
   id="g6502">
</g>
<g
   id="g6504">
</g>
<g
   id="g6506">
</g>
<g
   id="g6508">
</g>
<g
   id="g6510">
</g>
<g
   id="g6512">
</g>
<g
   id="g6514">
</g>
<g
   id="g6516">
</g>
<g
   id="g6518">
</g>
<g
   id="g6520">
</g>
<g
   id="g6522">
</g>
<g
   id="g6524">
</g>
<g
   id="g6526">
</g>
</svg>
